<?xml version="1.0" encoding="UTF-8" standalone="no"?>
<!DOCTYPE svg PUBLIC "-//W3C//DTD SVG 1.1//EN"
 "http://www.w3.org/Graphics/SVG/1.1/DTD/svg11.dtd">
<!-- Generated by graphviz version 2.38.0 (20140413.2041)
 -->
<!-- Title: controllers_diagram Pages: 1 -->
<svg width="412pt" height="370pt"
 viewBox="0.00 0.00 411.50 370.00" xmlns="http://www.w3.org/2000/svg" xmlns:xlink="http://www.w3.org/1999/xlink">
<g id="graph0" class="graph" transform="scale(1 1) rotate(0) translate(172 198)">
<title>controllers_diagram</title>
<polygon fill="none" stroke="none" points="-172,172 -172,-198 239.5,-198 239.5,172 -172,172"/>
<!-- _diagram_info -->
<g id="node1" class="node"><title>_diagram_info</title>
<text text-anchor="start" x="-104" y="-21.6" font-family="Times,serif" font-size="13.00">Controllers diagram</text>
<text text-anchor="start" x="-104" y="-7.6" font-family="Times,serif" font-size="13.00">Date: Aug 16 2015 &#45; 22:14</text>
<text text-anchor="start" x="-104" y="6.4" font-family="Times,serif" font-size="13.00">Migration version: 20150809113715</text>
<text text-anchor="start" x="-104" y="20.4" font-family="Times,serif" font-size="13.00">Generated by RailRoady 1.3.1</text>
<text text-anchor="start" x="-104" y="34.4" font-family="Times,serif" font-size="13.00">http://railroady.prestonlee.com</text>
</g>
<!-- TreadsController -->
<g id="node2" class="node"><title>TreadsController</title>
<path fill="none" stroke="black" d="M138.5,125C138.5,125 223.5,125 223.5,125 229.5,125 235.5,119 235.5,113 235.5,113 235.5,29 235.5,29 235.5,23 229.5,17 223.5,17 223.5,17 138.5,17 138.5,17 132.5,17 126.5,23 126.5,29 126.5,29 126.5,113 126.5,113 126.5,119 132.5,125 138.5,125"/>
<text text-anchor="middle" x="181" y="32.2" font-family="Times,serif" font-size="14.00">TreadsController</text>
<polyline fill="none" stroke="black" points="126.5,40 235.5,40 "/>
<text text-anchor="start" x="134.5" y="55.2" font-family="Times,serif" font-size="14.00">index</text>
<text text-anchor="start" x="134.5" y="70.2" font-family="Times,serif" font-size="14.00">show</text>
<polyline fill="none" stroke="black" points="126.5,78 235.5,78 "/>
<polyline fill="none" stroke="black" points="126.5,102 235.5,102 "/>
<text text-anchor="start" x="134.5" y="117.2" font-family="Times,serif" font-size="14.00">_layout</text>
</g>
<!-- UsersController -->
<g id="node3" class="node"><title>UsersController</title>
<path fill="none" stroke="black" d="M12.5,167.5C12.5,167.5 91.5,167.5 91.5,167.5 97.5,167.5 103.5,161.5 103.5,155.5 103.5,155.5 103.5,86.5 103.5,86.5 103.5,80.5 97.5,74.5 91.5,74.5 91.5,74.5 12.5,74.5 12.5,74.5 6.5,74.5 0.5,80.5 0.5,86.5 0.5,86.5 0.5,155.5 0.5,155.5 0.5,161.5 6.5,167.5 12.5,167.5"/>
<text text-anchor="middle" x="52" y="89.7" font-family="Times,serif" font-size="14.00">UsersController</text>
<polyline fill="none" stroke="black" points="0.5,97.5 103.5,97.5 "/>
<text text-anchor="start" x="8.5" y="112.7" font-family="Times,serif" font-size="14.00">index</text>
<polyline fill="none" stroke="black" points="0.5,120.5 103.5,120.5 "/>
<polyline fill="none" stroke="black" points="0.5,144.5 103.5,144.5 "/>
<text text-anchor="start" x="8.5" y="159.7" font-family="Times,serif" font-size="14.00">_layout</text>
</g>
<!-- PagesController -->
<g id="node4" class="node"><title>PagesController</title>
<path fill="none" stroke="black" d="M-156,167.5C-156,167.5 -76,167.5 -76,167.5 -70,167.5 -64,161.5 -64,155.5 -64,155.5 -64,86.5 -64,86.5 -64,80.5 -70,74.5 -76,74.5 -76,74.5 -156,74.5 -156,74.5 -162,74.5 -168,80.5 -168,86.5 -168,86.5 -168,155.5 -168,155.5 -168,161.5 -162,167.5 -156,167.5"/>
<text text-anchor="middle" x="-116" y="89.7" font-family="Times,serif" font-size="14.00">PagesController</text>
<polyline fill="none" stroke="black" points="-168,97.5 -64,97.5 "/>
<text text-anchor="start" x="-160" y="112.7" font-family="Times,serif" font-size="14.00">index</text>
<polyline fill="none" stroke="black" points="-168,120.5 -64,120.5 "/>
<polyline fill="none" stroke="black" points="-168,144.5 -64,144.5 "/>
<text text-anchor="start" x="-160" y="159.7" font-family="Times,serif" font-size="14.00">_layout</text>
</g>
<!-- MessagesController -->
<g id="node5" class="node"><title>MessagesController</title>
<path fill="none" stroke="black" d="M81.5,-70.5C81.5,-70.5 182.5,-70.5 182.5,-70.5 188.5,-70.5 194.5,-76.5 194.5,-82.5 194.5,-82.5 194.5,-181.5 194.5,-181.5 194.5,-187.5 188.5,-193.5 182.5,-193.5 182.5,-193.5 81.5,-193.5 81.5,-193.5 75.5,-193.5 69.5,-187.5 69.5,-181.5 69.5,-181.5 69.5,-82.5 69.5,-82.5 69.5,-76.5 75.5,-70.5 81.5,-70.5"/>
<text text-anchor="middle" x="132" y="-178.3" font-family="Times,serif" font-size="14.00">MessagesController</text>
<polyline fill="none" stroke="black" points="69.5,-170.5 194.5,-170.5 "/>
<text text-anchor="start" x="77.5" y="-155.3" font-family="Times,serif" font-size="14.00">create</text>
<text text-anchor="start" x="77.5" y="-140.3" font-family="Times,serif" font-size="14.00">index</text>
<polyline fill="none" stroke="black" points="69.5,-132.5 194.5,-132.5 "/>
<polyline fill="none" stroke="black" points="69.5,-108.5 194.5,-108.5 "/>
<text text-anchor="start" x="77.5" y="-93.3" font-family="Times,serif" font-size="14.00">_layout</text>
<text text-anchor="start" x="77.5" y="-78.3" font-family="Times,serif" font-size="14.00">message_params</text>
</g>
<!-- ApplicationController -->
<g id="node6" class="node"><title>ApplicationController</title>
<path fill="none" stroke="black" d="M-86,-99C-86,-99 26,-99 26,-99 32,-99 38,-105 38,-111 38,-111 38,-181 38,-181 38,-187 32,-193 26,-193 26,-193 -86,-193 -86,-193 -92,-193 -98,-187 -98,-181 -98,-181 -98,-111 -98,-111 -98,-105 -92,-99 -86,-99"/>
<text text-anchor="middle" x="-30" y="-177.8" font-family="Times,serif" font-size="14.00">ApplicationController</text>
<polyline fill="none" stroke="black" points="-98,-170 38,-170 "/>
<polyline fill="none" stroke="black" points="-98,-146 38,-146 "/>
<polyline fill="none" stroke="black" points="-98,-122 38,-122 "/>
<text text-anchor="start" x="-90" y="-106.8" font-family="Times,serif" font-size="14.00">_layout</text>
</g>
</g>
</svg>
