<?xml version="1.0" encoding="UTF-8" standalone="no"?>
<!DOCTYPE svg PUBLIC "-//W3C//DTD SVG 1.1//EN"
 "http://www.w3.org/Graphics/SVG/1.1/DTD/svg11.dtd">
<!-- Generated by graphviz version 2.38.0 (20140413.2041)
 -->
<!-- Title: models_diagram Pages: 1 -->
<svg width="401pt" height="230pt"
 viewBox="0.00 0.00 401.20 230.00" xmlns="http://www.w3.org/2000/svg" xmlns:xlink="http://www.w3.org/1999/xlink">
<g id="graph0" class="graph" transform="scale(1 1) rotate(0) translate(4 226)">
<title>models_diagram</title>
<polygon fill="none" stroke="none" points="-4,4 -4,-226 397.197,-226 397.197,4 -4,4"/>
<!-- _diagram_info -->
<g id="node1" class="node"><title>_diagram_info</title>
<text text-anchor="start" x="8" y="-207.6" font-family="Times,serif" font-size="13.00">Models diagram</text>
<text text-anchor="start" x="8" y="-193.6" font-family="Times,serif" font-size="13.00">Date: Aug 16 2015 &#45; 22:14</text>
<text text-anchor="start" x="8" y="-179.6" font-family="Times,serif" font-size="13.00">Migration version: 20150809113715</text>
<text text-anchor="start" x="8" y="-165.6" font-family="Times,serif" font-size="13.00">Generated by RailRoady 1.3.1</text>
<text text-anchor="start" x="8" y="-151.6" font-family="Times,serif" font-size="13.00">http://railroady.prestonlee.com</text>
</g>
<!-- Ability -->
<g id="node2" class="node"><title>Ability</title>
<polygon fill="none" stroke="black" points="287.5,-201 232.5,-201 232.5,-165 287.5,-165 287.5,-201"/>
<text text-anchor="middle" x="260" y="-179.3" font-family="Times,serif" font-size="14.00">Ability</text>
</g>
<!-- Message -->
<g id="node3" class="node"><title>Message</title>
<ellipse fill="none" stroke="black" cx="332" cy="-18" rx="42.4939" ry="18"/>
<text text-anchor="middle" x="332" y="-14.3" font-family="Times,serif" font-size="14.00">Message</text>
</g>
<!-- User -->
<g id="node4" class="node"><title>User</title>
<ellipse fill="none" stroke="black" cx="333" cy="-183" rx="27.0966" ry="18"/>
<text text-anchor="middle" x="333" y="-179.3" font-family="Times,serif" font-size="14.00">User</text>
</g>
<!-- User&#45;&gt;Message -->
<g id="edge2" class="edge"><title>User&#45;&gt;Message</title>
<path fill="none" stroke="#fdf6c2" d="M327.725,-156.895C323.701,-134.605 319.275,-101.144 322,-72 322.797,-63.4781 324.3,-54.2849 325.903,-45.9862"/>
<ellipse fill="none" stroke="#fdf6c2" cx="328.488" cy="-160.928" rx="4.00001" ry="4.00001"/>
<polygon fill="#fdf6c2" stroke="#fdf6c2" points="325.927,-45.866 332.349,-36.977 326.934,-40.9684 327.941,-36.0708 327.941,-36.0708 327.941,-36.0708 326.934,-40.9684 323.533,-35.1647 325.927,-45.866 325.927,-45.866"/>
</g>
<!-- Tread -->
<g id="node5" class="node"><title>Tread</title>
<ellipse fill="none" stroke="black" cx="362" cy="-90" rx="31.3957" ry="18"/>
<text text-anchor="middle" x="362" y="-86.3" font-family="Times,serif" font-size="14.00">Tread</text>
</g>
<!-- User&#45;&gt;Tread -->
<g id="edge1" class="edge"><title>User&#45;&gt;Tread</title>
<path fill="none" stroke="#aeab19" d="M341.491,-155.356C345.272,-143.493 349.714,-129.552 353.496,-117.684"/>
<polygon fill="#aeab19" stroke="#aeab19" points="341.355,-155.781 334.031,-163.943 339.837,-160.545 338.319,-165.309 338.319,-165.309 338.319,-165.309 339.837,-160.545 342.607,-166.676 341.355,-155.781 341.355,-155.781"/>
<polygon fill="#aeab19" stroke="#aeab19" points="353.58,-117.421 360.904,-109.26 355.098,-112.657 356.616,-107.893 356.616,-107.893 356.616,-107.893 355.098,-112.657 352.329,-106.527 353.58,-117.421 353.58,-117.421"/>
</g>
<!-- Tread&#45;&gt;Message -->
<g id="edge3" class="edge"><title>Tread&#45;&gt;Message</title>
<path fill="none" stroke="#ce9991" d="M351.619,-64.7779C348.947,-58.544 346.059,-51.8046 343.341,-45.4634"/>
<ellipse fill="none" stroke="#ce9991" cx="353.315" cy="-68.7344" rx="4.00002" ry="4.00002"/>
<polygon fill="#ce9991" stroke="#ce9991" points="343.206,-45.1477 343.403,-34.1835 341.237,-40.5519 339.267,-35.9562 339.267,-35.9562 339.267,-35.9562 341.237,-40.5519 335.131,-37.7289 343.206,-45.1477 343.206,-45.1477"/>
</g>
</g>
</svg>
