<?xml version="1.0" encoding="UTF-8" standalone="no"?>
<!DOCTYPE svg PUBLIC "-//W3C//DTD SVG 1.1//EN"
 "http://www.w3.org/Graphics/SVG/1.1/DTD/svg11.dtd">
<!-- Generated by graphviz version 2.38.0 (20140413.2041)
 -->
<!-- Title: models_diagram Pages: 1 -->
<svg width="527pt" height="536pt"
 viewBox="0.00 0.00 526.50 536.00" xmlns="http://www.w3.org/2000/svg" xmlns:xlink="http://www.w3.org/1999/xlink">
<g id="graph0" class="graph" transform="scale(1 1) rotate(0) translate(4 532)">
<title>models_diagram</title>
<polygon fill="none" stroke="none" points="-4,4 -4,-532 522.5,-532 522.5,4 -4,4"/>
<!-- _diagram_info -->
<g id="node1" class="node"><title>_diagram_info</title>
<text text-anchor="start" x="8" y="-424.1" font-family="Times,serif" font-size="13.00">Models diagram</text>
<text text-anchor="start" x="8" y="-410.1" font-family="Times,serif" font-size="13.00">Date: Aug 16 2015 &#45; 22:14</text>
<text text-anchor="start" x="8" y="-396.1" font-family="Times,serif" font-size="13.00">Migration version: 20150809113715</text>
<text text-anchor="start" x="8" y="-382.1" font-family="Times,serif" font-size="13.00">Generated by RailRoady 1.3.1</text>
<text text-anchor="start" x="8" y="-368.1" font-family="Times,serif" font-size="13.00">http://railroady.prestonlee.com</text>
</g>
<!-- Ability -->
<g id="node2" class="node"><title>Ability</title>
<polygon fill="none" stroke="black" points="232.5,-376.5 232.5,-422.5 287.5,-422.5 287.5,-376.5 232.5,-376.5"/>
<text text-anchor="middle" x="260" y="-407.3" font-family="Times,serif" font-size="14.00">Ability</text>
<polyline fill="none" stroke="black" points="232.5,-399.5 287.5,-399.5 "/>
<text text-anchor="middle" x="260" y="-384.3" font-family="Times,serif" font-size="14.00"> </text>
</g>
<!-- Message -->
<g id="node3" class="node"><title>Message</title>
<path fill="none" stroke="black" d="M352.5,-0.5C352.5,-0.5 459.5,-0.5 459.5,-0.5 465.5,-0.5 471.5,-6.5 471.5,-12.5 471.5,-12.5 471.5,-109.5 471.5,-109.5 471.5,-115.5 465.5,-121.5 459.5,-121.5 459.5,-121.5 352.5,-121.5 352.5,-121.5 346.5,-121.5 340.5,-115.5 340.5,-109.5 340.5,-109.5 340.5,-12.5 340.5,-12.5 340.5,-6.5 346.5,-0.5 352.5,-0.5"/>
<text text-anchor="middle" x="406" y="-106.3" font-family="Times,serif" font-size="14.00">Message</text>
<polyline fill="none" stroke="black" points="340.5,-98.5 471.5,-98.5 "/>
<text text-anchor="start" x="348.5" y="-83.3" font-family="Times,serif" font-size="14.00">id :integer</text>
<text text-anchor="start" x="348.5" y="-68.3" font-family="Times,serif" font-size="14.00">user_id :integer</text>
<text text-anchor="start" x="348.5" y="-53.3" font-family="Times,serif" font-size="14.00">tread_id :integer</text>
<text text-anchor="start" x="348.5" y="-38.3" font-family="Times,serif" font-size="14.00">text :string</text>
<text text-anchor="start" x="348.5" y="-23.3" font-family="Times,serif" font-size="14.00">created_at :datetime</text>
<text text-anchor="start" x="348.5" y="-8.3" font-family="Times,serif" font-size="14.00">updated_at :datetime</text>
</g>
<!-- User -->
<g id="node4" class="node"><title>User</title>
<path fill="none" stroke="black" d="M318,-271.5C318,-271.5 494,-271.5 494,-271.5 500,-271.5 506,-277.5 506,-283.5 506,-283.5 506,-515.5 506,-515.5 506,-521.5 500,-527.5 494,-527.5 494,-527.5 318,-527.5 318,-527.5 312,-527.5 306,-521.5 306,-515.5 306,-515.5 306,-283.5 306,-283.5 306,-277.5 312,-271.5 318,-271.5"/>
<text text-anchor="middle" x="406" y="-512.3" font-family="Times,serif" font-size="14.00">User</text>
<polyline fill="none" stroke="black" points="306,-504.5 506,-504.5 "/>
<text text-anchor="start" x="314" y="-489.3" font-family="Times,serif" font-size="14.00">id :integer</text>
<text text-anchor="start" x="314" y="-474.3" font-family="Times,serif" font-size="14.00">email :string</text>
<text text-anchor="start" x="314" y="-459.3" font-family="Times,serif" font-size="14.00">encrypted_password :string</text>
<text text-anchor="start" x="314" y="-444.3" font-family="Times,serif" font-size="14.00">reset_password_token :string</text>
<text text-anchor="start" x="314" y="-429.3" font-family="Times,serif" font-size="14.00">reset_password_sent_at :datetime</text>
<text text-anchor="start" x="314" y="-414.3" font-family="Times,serif" font-size="14.00">remember_created_at :datetime</text>
<text text-anchor="start" x="314" y="-399.3" font-family="Times,serif" font-size="14.00">sign_in_count :integer</text>
<text text-anchor="start" x="314" y="-384.3" font-family="Times,serif" font-size="14.00">current_sign_in_at :datetime</text>
<text text-anchor="start" x="314" y="-369.3" font-family="Times,serif" font-size="14.00">last_sign_in_at :datetime</text>
<text text-anchor="start" x="314" y="-354.3" font-family="Times,serif" font-size="14.00">current_sign_in_ip :inet</text>
<text text-anchor="start" x="314" y="-339.3" font-family="Times,serif" font-size="14.00">last_sign_in_ip :inet</text>
<text text-anchor="start" x="314" y="-324.3" font-family="Times,serif" font-size="14.00">created_at :datetime</text>
<text text-anchor="start" x="314" y="-309.3" font-family="Times,serif" font-size="14.00">updated_at :datetime</text>
<text text-anchor="start" x="314" y="-294.3" font-family="Times,serif" font-size="14.00">first_name :string</text>
<text text-anchor="start" x="314" y="-279.3" font-family="Times,serif" font-size="14.00">last_name :string</text>
</g>
<!-- User&#45;&gt;Message -->
<g id="edge2" class="edge"><title>User&#45;&gt;Message</title>
<path fill="none" stroke="#6fb0cf" d="M378.971,-263.142C375.362,-228.8 374.309,-192.005 379,-158 380.195,-149.339 381.969,-140.36 384.047,-131.525"/>
<ellipse fill="none" stroke="#6fb0cf" cx="379.443" cy="-267.376" rx="4.00001" ry="4.00001"/>
<polygon fill="#6fb0cf" stroke="#6fb0cf" points="384.093,-131.34 390.874,-122.723 385.3,-126.488 386.508,-121.636 386.508,-121.636 386.508,-121.636 385.3,-126.488 382.141,-120.55 384.093,-131.34 384.093,-131.34"/>
</g>
<!-- Tread -->
<g id="node5" class="node"><title>Tread</title>
<path fill="none" stroke="black" d="M399.5,-158.5C399.5,-158.5 506.5,-158.5 506.5,-158.5 512.5,-158.5 518.5,-164.5 518.5,-170.5 518.5,-170.5 518.5,-222.5 518.5,-222.5 518.5,-228.5 512.5,-234.5 506.5,-234.5 506.5,-234.5 399.5,-234.5 399.5,-234.5 393.5,-234.5 387.5,-228.5 387.5,-222.5 387.5,-222.5 387.5,-170.5 387.5,-170.5 387.5,-164.5 393.5,-158.5 399.5,-158.5"/>
<text text-anchor="middle" x="453" y="-219.3" font-family="Times,serif" font-size="14.00">Tread</text>
<polyline fill="none" stroke="black" points="387.5,-211.5 518.5,-211.5 "/>
<text text-anchor="start" x="395.5" y="-196.3" font-family="Times,serif" font-size="14.00">id :integer</text>
<text text-anchor="start" x="395.5" y="-181.3" font-family="Times,serif" font-size="14.00">created_at :datetime</text>
<text text-anchor="start" x="395.5" y="-166.3" font-family="Times,serif" font-size="14.00">updated_at :datetime</text>
</g>
<!-- User&#45;&gt;Tread -->
<g id="edge1" class="edge"><title>User&#45;&gt;Tread</title>
<path fill="none" stroke="#2836e5" d="M437.996,-261.665C439.374,-255.774 440.706,-250.076 441.971,-244.668"/>
<polygon fill="#2836e5" stroke="#2836e5" points="437.976,-261.751 431.317,-270.464 436.838,-266.62 435.699,-271.489 435.699,-271.489 435.699,-271.489 436.838,-266.62 440.081,-272.513 437.976,-261.751 437.976,-261.751"/>
<polygon fill="#2836e5" stroke="#2836e5" points="442.036,-244.388 448.695,-235.676 443.174,-239.52 444.313,-234.651 444.313,-234.651 444.313,-234.651 443.174,-239.52 439.931,-233.626 442.036,-244.388 442.036,-244.388"/>
</g>
<!-- Tread&#45;&gt;Message -->
<g id="edge3" class="edge"><title>Tread&#45;&gt;Message</title>
<path fill="none" stroke="#1c8f6e" d="M437.203,-150.631C434.992,-144.35 432.679,-137.779 430.354,-131.175"/>
<ellipse fill="none" stroke="#1c8f6e" cx="438.58" cy="-154.54" rx="4.00001" ry="4.00001"/>
<polygon fill="#1c8f6e" stroke="#1c8f6e" points="430.272,-130.941 431.195,-120.014 428.611,-126.225 426.951,-121.509 426.951,-121.509 426.951,-121.509 428.611,-126.225 422.706,-123.003 430.272,-130.941 430.272,-130.941"/>
</g>
</g>
</svg>
