<?xml version="1.0" encoding="UTF-8" standalone="no"?>
<!DOCTYPE svg PUBLIC "-//W3C//DTD SVG 1.1//EN"
 "http://www.w3.org/Graphics/SVG/1.1/DTD/svg11.dtd">
<!-- Generated by graphviz version 2.38.0 (20140413.2041)
 -->
<!-- Title: models_diagram Pages: 1 -->
<svg width="453pt" height="506pt"
 viewBox="0.00 0.00 452.50 506.00" xmlns="http://www.w3.org/2000/svg" xmlns:xlink="http://www.w3.org/1999/xlink">
<g id="graph0" class="graph" transform="scale(1 1) rotate(0) translate(4 502)">
<title>models_diagram</title>
<polygon fill="none" stroke="none" points="-4,4 -4,-502 448.5,-502 448.5,4 -4,4"/>
<!-- _diagram_info -->
<g id="node1" class="node"><title>_diagram_info</title>
<text text-anchor="start" x="8" y="-409.1" font-family="Times,serif" font-size="13.00">Models diagram</text>
<text text-anchor="start" x="8" y="-395.1" font-family="Times,serif" font-size="13.00">Date: Aug 08 2015 &#45; 12:35</text>
<text text-anchor="start" x="8" y="-381.1" font-family="Times,serif" font-size="13.00">Migration version: 20150808093341</text>
<text text-anchor="start" x="8" y="-367.1" font-family="Times,serif" font-size="13.00">Generated by RailRoady 1.3.1</text>
<text text-anchor="start" x="8" y="-353.1" font-family="Times,serif" font-size="13.00">http://railroady.prestonlee.com</text>
</g>
<!-- Message -->
<g id="node2" class="node"><title>Message</title>
<path fill="none" stroke="black" d="M278.5,-0.5C278.5,-0.5 385.5,-0.5 385.5,-0.5 391.5,-0.5 397.5,-6.5 397.5,-12.5 397.5,-12.5 397.5,-109.5 397.5,-109.5 397.5,-115.5 391.5,-121.5 385.5,-121.5 385.5,-121.5 278.5,-121.5 278.5,-121.5 272.5,-121.5 266.5,-115.5 266.5,-109.5 266.5,-109.5 266.5,-12.5 266.5,-12.5 266.5,-6.5 272.5,-0.5 278.5,-0.5"/>
<text text-anchor="middle" x="332" y="-106.3" font-family="Times,serif" font-size="14.00">Message</text>
<polyline fill="none" stroke="black" points="266.5,-98.5 397.5,-98.5 "/>
<text text-anchor="start" x="274.5" y="-83.3" font-family="Times,serif" font-size="14.00">id :integer</text>
<text text-anchor="start" x="274.5" y="-68.3" font-family="Times,serif" font-size="14.00">user_id :integer</text>
<text text-anchor="start" x="274.5" y="-53.3" font-family="Times,serif" font-size="14.00">tread_id :integer</text>
<text text-anchor="start" x="274.5" y="-38.3" font-family="Times,serif" font-size="14.00">text :string</text>
<text text-anchor="start" x="274.5" y="-23.3" font-family="Times,serif" font-size="14.00">created_at :datetime</text>
<text text-anchor="start" x="274.5" y="-8.3" font-family="Times,serif" font-size="14.00">updated_at :datetime</text>
</g>
<!-- User -->
<g id="node3" class="node"><title>User</title>
<path fill="none" stroke="black" d="M244,-271.5C244,-271.5 420,-271.5 420,-271.5 426,-271.5 432,-277.5 432,-283.5 432,-283.5 432,-485.5 432,-485.5 432,-491.5 426,-497.5 420,-497.5 420,-497.5 244,-497.5 244,-497.5 238,-497.5 232,-491.5 232,-485.5 232,-485.5 232,-283.5 232,-283.5 232,-277.5 238,-271.5 244,-271.5"/>
<text text-anchor="middle" x="332" y="-482.3" font-family="Times,serif" font-size="14.00">User</text>
<polyline fill="none" stroke="black" points="232,-474.5 432,-474.5 "/>
<text text-anchor="start" x="240" y="-459.3" font-family="Times,serif" font-size="14.00">id :integer</text>
<text text-anchor="start" x="240" y="-444.3" font-family="Times,serif" font-size="14.00">email :string</text>
<text text-anchor="start" x="240" y="-429.3" font-family="Times,serif" font-size="14.00">encrypted_password :string</text>
<text text-anchor="start" x="240" y="-414.3" font-family="Times,serif" font-size="14.00">reset_password_token :string</text>
<text text-anchor="start" x="240" y="-399.3" font-family="Times,serif" font-size="14.00">reset_password_sent_at :datetime</text>
<text text-anchor="start" x="240" y="-384.3" font-family="Times,serif" font-size="14.00">remember_created_at :datetime</text>
<text text-anchor="start" x="240" y="-369.3" font-family="Times,serif" font-size="14.00">sign_in_count :integer</text>
<text text-anchor="start" x="240" y="-354.3" font-family="Times,serif" font-size="14.00">current_sign_in_at :datetime</text>
<text text-anchor="start" x="240" y="-339.3" font-family="Times,serif" font-size="14.00">last_sign_in_at :datetime</text>
<text text-anchor="start" x="240" y="-324.3" font-family="Times,serif" font-size="14.00">current_sign_in_ip :inet</text>
<text text-anchor="start" x="240" y="-309.3" font-family="Times,serif" font-size="14.00">last_sign_in_ip :inet</text>
<text text-anchor="start" x="240" y="-294.3" font-family="Times,serif" font-size="14.00">created_at :datetime</text>
<text text-anchor="start" x="240" y="-279.3" font-family="Times,serif" font-size="14.00">updated_at :datetime</text>
</g>
<!-- User&#45;&gt;Message -->
<g id="edge2" class="edge"><title>User&#45;&gt;Message</title>
<path fill="none" stroke="#d43a49" d="M306.144,-263.156C301.939,-229.126 300.299,-192.081 305,-158 306.195,-149.339 307.969,-140.36 310.047,-131.525"/>
<ellipse fill="none" stroke="#d43a49" cx="306.685" cy="-267.313" rx="4.00001" ry="4.00001"/>
<polygon fill="#d43a49" stroke="#d43a49" points="310.093,-131.34 316.874,-122.723 311.3,-126.488 312.508,-121.636 312.508,-121.636 312.508,-121.636 311.3,-126.488 308.141,-120.55 310.093,-131.34 310.093,-131.34"/>
</g>
<!-- Tread -->
<g id="node4" class="node"><title>Tread</title>
<path fill="none" stroke="black" d="M325.5,-158.5C325.5,-158.5 432.5,-158.5 432.5,-158.5 438.5,-158.5 444.5,-164.5 444.5,-170.5 444.5,-170.5 444.5,-222.5 444.5,-222.5 444.5,-228.5 438.5,-234.5 432.5,-234.5 432.5,-234.5 325.5,-234.5 325.5,-234.5 319.5,-234.5 313.5,-228.5 313.5,-222.5 313.5,-222.5 313.5,-170.5 313.5,-170.5 313.5,-164.5 319.5,-158.5 325.5,-158.5"/>
<text text-anchor="middle" x="379" y="-219.3" font-family="Times,serif" font-size="14.00">Tread</text>
<polyline fill="none" stroke="black" points="313.5,-211.5 444.5,-211.5 "/>
<text text-anchor="start" x="321.5" y="-196.3" font-family="Times,serif" font-size="14.00">id :integer</text>
<text text-anchor="start" x="321.5" y="-181.3" font-family="Times,serif" font-size="14.00">created_at :datetime</text>
<text text-anchor="start" x="321.5" y="-166.3" font-family="Times,serif" font-size="14.00">updated_at :datetime</text>
</g>
<!-- User&#45;&gt;Tread -->
<g id="edge1" class="edge"><title>User&#45;&gt;Tread</title>
<path fill="none" stroke="#f4ed29" d="M362.875,-261.315C364.326,-255.572 365.735,-249.994 367.078,-244.682"/>
<polygon fill="#f4ed29" stroke="#f4ed29" points="362.807,-261.584 355.994,-270.177 361.582,-266.432 360.357,-271.279 360.357,-271.279 360.357,-271.279 361.582,-266.432 364.72,-272.382 362.807,-261.584 362.807,-261.584"/>
<polygon fill="#f4ed29" stroke="#f4ed29" points="367.119,-244.516 373.932,-235.923 368.344,-239.669 369.569,-234.821 369.569,-234.821 369.569,-234.821 368.344,-239.669 365.207,-233.719 367.119,-244.516 367.119,-244.516"/>
</g>
<!-- Tread&#45;&gt;Message -->
<g id="edge3" class="edge"><title>Tread&#45;&gt;Message</title>
<path fill="none" stroke="#6b85be" d="M363.203,-150.631C360.992,-144.35 358.679,-137.779 356.354,-131.175"/>
<ellipse fill="none" stroke="#6b85be" cx="364.58" cy="-154.54" rx="4.00001" ry="4.00001"/>
<polygon fill="#6b85be" stroke="#6b85be" points="356.272,-130.941 357.195,-120.014 354.611,-126.225 352.951,-121.509 352.951,-121.509 352.951,-121.509 354.611,-126.225 348.706,-123.003 356.272,-130.941 356.272,-130.941"/>
</g>
</g>
</svg>
