<?xml version="1.0" encoding="UTF-8" standalone="no"?>
<!DOCTYPE svg PUBLIC "-//W3C//DTD SVG 1.1//EN"
 "http://www.w3.org/Graphics/SVG/1.1/DTD/svg11.dtd">
<!-- Generated by graphviz version 2.38.0 (20140413.2041)
 -->
<!-- Title: models_diagram Pages: 1 -->
<svg width="327pt" height="230pt"
 viewBox="0.00 0.00 327.20 230.00" xmlns="http://www.w3.org/2000/svg" xmlns:xlink="http://www.w3.org/1999/xlink">
<g id="graph0" class="graph" transform="scale(1 1) rotate(0) translate(4 226)">
<title>models_diagram</title>
<polygon fill="none" stroke="none" points="-4,4 -4,-226 323.197,-226 323.197,4 -4,4"/>
<!-- _diagram_info -->
<g id="node1" class="node"><title>_diagram_info</title>
<text text-anchor="start" x="8" y="-207.6" font-family="Times,serif" font-size="13.00">Models diagram</text>
<text text-anchor="start" x="8" y="-193.6" font-family="Times,serif" font-size="13.00">Date: Aug 08 2015 &#45; 12:35</text>
<text text-anchor="start" x="8" y="-179.6" font-family="Times,serif" font-size="13.00">Migration version: 20150808093341</text>
<text text-anchor="start" x="8" y="-165.6" font-family="Times,serif" font-size="13.00">Generated by RailRoady 1.3.1</text>
<text text-anchor="start" x="8" y="-151.6" font-family="Times,serif" font-size="13.00">http://railroady.prestonlee.com</text>
</g>
<!-- Message -->
<g id="node2" class="node"><title>Message</title>
<ellipse fill="none" stroke="black" cx="258" cy="-18" rx="42.4939" ry="18"/>
<text text-anchor="middle" x="258" y="-14.3" font-family="Times,serif" font-size="14.00">Message</text>
</g>
<!-- User -->
<g id="node3" class="node"><title>User</title>
<ellipse fill="none" stroke="black" cx="259" cy="-183" rx="27.0966" ry="18"/>
<text text-anchor="middle" x="259" y="-179.3" font-family="Times,serif" font-size="14.00">User</text>
</g>
<!-- User&#45;&gt;Message -->
<g id="edge2" class="edge"><title>User&#45;&gt;Message</title>
<path fill="none" stroke="#208450" d="M253.725,-156.895C249.701,-134.605 245.275,-101.144 248,-72 248.797,-63.4781 250.3,-54.2849 251.903,-45.9862"/>
<ellipse fill="none" stroke="#208450" cx="254.488" cy="-160.928" rx="4.00001" ry="4.00001"/>
<polygon fill="#208450" stroke="#208450" points="251.927,-45.866 258.349,-36.977 252.934,-40.9684 253.941,-36.0708 253.941,-36.0708 253.941,-36.0708 252.934,-40.9684 249.533,-35.1647 251.927,-45.866 251.927,-45.866"/>
</g>
<!-- Tread -->
<g id="node4" class="node"><title>Tread</title>
<ellipse fill="none" stroke="black" cx="288" cy="-90" rx="31.3957" ry="18"/>
<text text-anchor="middle" x="288" y="-86.3" font-family="Times,serif" font-size="14.00">Tread</text>
</g>
<!-- User&#45;&gt;Tread -->
<g id="edge1" class="edge"><title>User&#45;&gt;Tread</title>
<path fill="none" stroke="#fc5fc5" d="M267.491,-155.356C271.272,-143.493 275.714,-129.552 279.496,-117.684"/>
<polygon fill="#fc5fc5" stroke="#fc5fc5" points="267.355,-155.781 260.031,-163.943 265.837,-160.545 264.319,-165.309 264.319,-165.309 264.319,-165.309 265.837,-160.545 268.607,-166.676 267.355,-155.781 267.355,-155.781"/>
<polygon fill="#fc5fc5" stroke="#fc5fc5" points="279.58,-117.421 286.904,-109.26 281.098,-112.657 282.616,-107.893 282.616,-107.893 282.616,-107.893 281.098,-112.657 278.329,-106.527 279.58,-117.421 279.58,-117.421"/>
</g>
<!-- Tread&#45;&gt;Message -->
<g id="edge3" class="edge"><title>Tread&#45;&gt;Message</title>
<path fill="none" stroke="#2f4a24" d="M277.619,-64.7779C274.947,-58.544 272.059,-51.8046 269.341,-45.4634"/>
<ellipse fill="none" stroke="#2f4a24" cx="279.315" cy="-68.7344" rx="4.00002" ry="4.00002"/>
<polygon fill="#2f4a24" stroke="#2f4a24" points="269.206,-45.1477 269.403,-34.1835 267.237,-40.5519 265.267,-35.9562 265.267,-35.9562 265.267,-35.9562 267.237,-40.5519 261.131,-37.7289 269.206,-45.1477 269.206,-45.1477"/>
</g>
</g>
</svg>
